<mxfile host="app.diagrams.net" modified="2024-06-21T11:05:19.014Z" agent="Mozilla/5.0 (Windows NT 10.0; Win64; x64) AppleWebKit/537.36 (KHTML, like Gecko) Chrome/126.0.0.0 Safari/537.36 Edg/126.0.0.0" etag="4h51lOJliV35T0jCLit0" version="24.5.5" type="device">
  <diagram name="Page-1" id="GPNKMh0xjXjDVwFQdJ_C">
    <mxGraphModel dx="1980" dy="1057" grid="1" gridSize="10" guides="1" tooltips="1" connect="1" arrows="1" fold="1" page="1" pageScale="1" pageWidth="850" pageHeight="1100" math="0" shadow="0">
      <root>
        <mxCell id="0" />
        <mxCell id="1" parent="0" />
        <mxCell id="FPKgR_mp3HJGvwH1V2J1-1" value="id" style="ellipse;whiteSpace=wrap;html=1;align=center;" vertex="1" parent="1">
          <mxGeometry x="40" y="280" width="100" height="40" as="geometry" />
        </mxCell>
        <mxCell id="FPKgR_mp3HJGvwH1V2J1-2" value="users" style="whiteSpace=wrap;html=1;align=center;" vertex="1" parent="1">
          <mxGeometry x="200" y="310" width="160" height="90" as="geometry" />
        </mxCell>
        <mxCell id="FPKgR_mp3HJGvwH1V2J1-4" value="Memiliki" style="shape=rhombus;perimeter=rhombusPerimeter;whiteSpace=wrap;html=1;align=center;" vertex="1" parent="1">
          <mxGeometry x="560" y="370" width="110" height="60" as="geometry" />
        </mxCell>
        <mxCell id="FPKgR_mp3HJGvwH1V2J1-5" value="nama" style="ellipse;whiteSpace=wrap;html=1;align=center;" vertex="1" parent="1">
          <mxGeometry x="60" y="220" width="100" height="40" as="geometry" />
        </mxCell>
        <mxCell id="FPKgR_mp3HJGvwH1V2J1-6" value="email" style="ellipse;whiteSpace=wrap;html=1;align=center;" vertex="1" parent="1">
          <mxGeometry x="110" y="160" width="100" height="40" as="geometry" />
        </mxCell>
        <mxCell id="FPKgR_mp3HJGvwH1V2J1-7" value="is_admin" style="ellipse;whiteSpace=wrap;html=1;align=center;" vertex="1" parent="1">
          <mxGeometry x="350" y="190" width="100" height="40" as="geometry" />
        </mxCell>
        <mxCell id="FPKgR_mp3HJGvwH1V2J1-8" value="telp" style="ellipse;whiteSpace=wrap;html=1;align=center;" vertex="1" parent="1">
          <mxGeometry x="220" y="150" width="100" height="40" as="geometry" />
        </mxCell>
        <mxCell id="FPKgR_mp3HJGvwH1V2J1-9" value="nik" style="ellipse;whiteSpace=wrap;html=1;align=center;" vertex="1" parent="1">
          <mxGeometry x="170" y="110" width="100" height="40" as="geometry" />
        </mxCell>
        <mxCell id="FPKgR_mp3HJGvwH1V2J1-10" value="img_path" style="ellipse;whiteSpace=wrap;html=1;align=center;" vertex="1" parent="1">
          <mxGeometry x="470" y="210" width="100" height="40" as="geometry" />
        </mxCell>
        <mxCell id="FPKgR_mp3HJGvwH1V2J1-11" value="email_verified_at" style="ellipse;whiteSpace=wrap;html=1;align=center;" vertex="1" parent="1">
          <mxGeometry x="350" y="140" width="100" height="40" as="geometry" />
        </mxCell>
        <mxCell id="FPKgR_mp3HJGvwH1V2J1-12" value="password" style="ellipse;whiteSpace=wrap;html=1;align=center;" vertex="1" parent="1">
          <mxGeometry x="310" y="100" width="100" height="40" as="geometry" />
        </mxCell>
        <mxCell id="FPKgR_mp3HJGvwH1V2J1-14" value="created_at" style="ellipse;whiteSpace=wrap;html=1;align=center;" vertex="1" parent="1">
          <mxGeometry x="445" y="300" width="100" height="40" as="geometry" />
        </mxCell>
        <mxCell id="FPKgR_mp3HJGvwH1V2J1-15" value="updated_at" style="ellipse;whiteSpace=wrap;html=1;align=center;" vertex="1" parent="1">
          <mxGeometry x="470" y="260" width="100" height="40" as="geometry" />
        </mxCell>
        <mxCell id="FPKgR_mp3HJGvwH1V2J1-17" value="remember_token" style="ellipse;whiteSpace=wrap;html=1;align=center;" vertex="1" parent="1">
          <mxGeometry x="450" y="160" width="100" height="40" as="geometry" />
        </mxCell>
        <mxCell id="FPKgR_mp3HJGvwH1V2J1-21" value="" style="endArrow=none;html=1;rounded=0;entryX=0.92;entryY=0.739;entryDx=0;entryDy=0;entryPerimeter=0;" edge="1" parent="1" target="FPKgR_mp3HJGvwH1V2J1-1">
          <mxGeometry width="50" height="50" relative="1" as="geometry">
            <mxPoint x="200" y="320" as="sourcePoint" />
            <mxPoint x="470" y="400" as="targetPoint" />
          </mxGeometry>
        </mxCell>
        <mxCell id="FPKgR_mp3HJGvwH1V2J1-22" value="" style="endArrow=none;html=1;rounded=0;entryX=0.5;entryY=1;entryDx=0;entryDy=0;exitX=0.129;exitY=-0.017;exitDx=0;exitDy=0;exitPerimeter=0;" edge="1" parent="1" source="FPKgR_mp3HJGvwH1V2J1-2" target="FPKgR_mp3HJGvwH1V2J1-6">
          <mxGeometry width="50" height="50" relative="1" as="geometry">
            <mxPoint x="210" y="330" as="sourcePoint" />
            <mxPoint x="162" y="300" as="targetPoint" />
          </mxGeometry>
        </mxCell>
        <mxCell id="FPKgR_mp3HJGvwH1V2J1-23" value="" style="endArrow=none;html=1;rounded=0;entryX=0.38;entryY=1.039;entryDx=0;entryDy=0;entryPerimeter=0;exitX=0.365;exitY=-0.022;exitDx=0;exitDy=0;exitPerimeter=0;" edge="1" parent="1" source="FPKgR_mp3HJGvwH1V2J1-2" target="FPKgR_mp3HJGvwH1V2J1-12">
          <mxGeometry width="50" height="50" relative="1" as="geometry">
            <mxPoint x="220" y="340" as="sourcePoint" />
            <mxPoint x="172" y="310" as="targetPoint" />
          </mxGeometry>
        </mxCell>
        <mxCell id="FPKgR_mp3HJGvwH1V2J1-24" value="" style="endArrow=none;html=1;rounded=0;entryX=0.726;entryY=1.032;entryDx=0;entryDy=0;entryPerimeter=0;exitX=0;exitY=0;exitDx=0;exitDy=0;" edge="1" parent="1" source="FPKgR_mp3HJGvwH1V2J1-2" target="FPKgR_mp3HJGvwH1V2J1-5">
          <mxGeometry width="50" height="50" relative="1" as="geometry">
            <mxPoint x="230" y="350" as="sourcePoint" />
            <mxPoint x="182" y="320" as="targetPoint" />
          </mxGeometry>
        </mxCell>
        <mxCell id="FPKgR_mp3HJGvwH1V2J1-25" value="" style="endArrow=none;html=1;rounded=0;entryX=0.425;entryY=1.054;entryDx=0;entryDy=0;exitX=0.198;exitY=0.015;exitDx=0;exitDy=0;exitPerimeter=0;entryPerimeter=0;" edge="1" parent="1" source="FPKgR_mp3HJGvwH1V2J1-2" target="FPKgR_mp3HJGvwH1V2J1-9">
          <mxGeometry width="50" height="50" relative="1" as="geometry">
            <mxPoint x="231" y="318" as="sourcePoint" />
            <mxPoint x="200" y="190" as="targetPoint" />
          </mxGeometry>
        </mxCell>
        <mxCell id="FPKgR_mp3HJGvwH1V2J1-26" value="" style="endArrow=none;html=1;rounded=0;entryX=0.408;entryY=1.054;entryDx=0;entryDy=0;entryPerimeter=0;" edge="1" parent="1" target="FPKgR_mp3HJGvwH1V2J1-8">
          <mxGeometry width="50" height="50" relative="1" as="geometry">
            <mxPoint x="245" y="310" as="sourcePoint" />
            <mxPoint x="273" y="154" as="targetPoint" />
          </mxGeometry>
        </mxCell>
        <mxCell id="FPKgR_mp3HJGvwH1V2J1-27" value="" style="endArrow=none;html=1;rounded=0;entryX=0;entryY=1;entryDx=0;entryDy=0;exitX=0.464;exitY=-0.004;exitDx=0;exitDy=0;exitPerimeter=0;" edge="1" parent="1" source="FPKgR_mp3HJGvwH1V2J1-2" target="FPKgR_mp3HJGvwH1V2J1-11">
          <mxGeometry width="50" height="50" relative="1" as="geometry">
            <mxPoint x="268" y="318" as="sourcePoint" />
            <mxPoint x="418" y="152" as="targetPoint" />
          </mxGeometry>
        </mxCell>
        <mxCell id="FPKgR_mp3HJGvwH1V2J1-28" value="" style="endArrow=none;html=1;rounded=0;exitX=0.589;exitY=-0.004;exitDx=0;exitDy=0;exitPerimeter=0;" edge="1" parent="1" source="FPKgR_mp3HJGvwH1V2J1-2" target="FPKgR_mp3HJGvwH1V2J1-7">
          <mxGeometry width="50" height="50" relative="1" as="geometry">
            <mxPoint x="284" y="320" as="sourcePoint" />
            <mxPoint x="455" y="170" as="targetPoint" />
          </mxGeometry>
        </mxCell>
        <mxCell id="FPKgR_mp3HJGvwH1V2J1-29" value="" style="endArrow=none;html=1;rounded=0;" edge="1" parent="1" source="FPKgR_mp3HJGvwH1V2J1-2" target="FPKgR_mp3HJGvwH1V2J1-10">
          <mxGeometry width="50" height="50" relative="1" as="geometry">
            <mxPoint x="304" y="320" as="sourcePoint" />
            <mxPoint x="416" y="238" as="targetPoint" />
          </mxGeometry>
        </mxCell>
        <mxCell id="FPKgR_mp3HJGvwH1V2J1-31" value="" style="endArrow=none;html=1;rounded=0;exitX=0.75;exitY=0;exitDx=0;exitDy=0;entryX=0.392;entryY=1.033;entryDx=0;entryDy=0;entryPerimeter=0;" edge="1" parent="1" source="FPKgR_mp3HJGvwH1V2J1-2" target="FPKgR_mp3HJGvwH1V2J1-17">
          <mxGeometry width="50" height="50" relative="1" as="geometry">
            <mxPoint x="380" y="332" as="sourcePoint" />
            <mxPoint x="530" y="190" as="targetPoint" />
          </mxGeometry>
        </mxCell>
        <mxCell id="FPKgR_mp3HJGvwH1V2J1-32" value="" style="endArrow=none;html=1;rounded=0;entryX=0;entryY=0.5;entryDx=0;entryDy=0;exitX=1;exitY=0.111;exitDx=0;exitDy=0;exitPerimeter=0;" edge="1" parent="1" source="FPKgR_mp3HJGvwH1V2J1-2" target="FPKgR_mp3HJGvwH1V2J1-15">
          <mxGeometry width="50" height="50" relative="1" as="geometry">
            <mxPoint x="390" y="342" as="sourcePoint" />
            <mxPoint x="525" y="270" as="targetPoint" />
          </mxGeometry>
        </mxCell>
        <mxCell id="FPKgR_mp3HJGvwH1V2J1-33" value="" style="endArrow=none;html=1;rounded=0;exitX=1;exitY=0.25;exitDx=0;exitDy=0;" edge="1" parent="1" source="FPKgR_mp3HJGvwH1V2J1-2" target="FPKgR_mp3HJGvwH1V2J1-14">
          <mxGeometry width="50" height="50" relative="1" as="geometry">
            <mxPoint x="400" y="352" as="sourcePoint" />
            <mxPoint x="535" y="280" as="targetPoint" />
          </mxGeometry>
        </mxCell>
        <mxCell id="FPKgR_mp3HJGvwH1V2J1-55" value="id" style="ellipse;whiteSpace=wrap;html=1;align=center;" vertex="1" parent="1">
          <mxGeometry x="630" y="288.82" width="100" height="40" as="geometry" />
        </mxCell>
        <mxCell id="FPKgR_mp3HJGvwH1V2J1-56" value="guests" style="whiteSpace=wrap;html=1;align=center;" vertex="1" parent="1">
          <mxGeometry x="795" y="308.82" width="160" height="90" as="geometry" />
        </mxCell>
        <mxCell id="FPKgR_mp3HJGvwH1V2J1-57" value="nama" style="ellipse;whiteSpace=wrap;html=1;align=center;" vertex="1" parent="1">
          <mxGeometry x="650" y="228.82" width="100" height="40" as="geometry" />
        </mxCell>
        <mxCell id="FPKgR_mp3HJGvwH1V2J1-58" value="email" style="ellipse;whiteSpace=wrap;html=1;align=center;" vertex="1" parent="1">
          <mxGeometry x="700" y="168.82" width="100" height="40" as="geometry" />
        </mxCell>
        <mxCell id="FPKgR_mp3HJGvwH1V2J1-59" value="ticket_id" style="ellipse;whiteSpace=wrap;html=1;align=center;" vertex="1" parent="1">
          <mxGeometry x="935" y="158.82" width="100" height="40" as="geometry" />
        </mxCell>
        <mxCell id="FPKgR_mp3HJGvwH1V2J1-60" value="telp" style="ellipse;whiteSpace=wrap;html=1;align=center;" vertex="1" parent="1">
          <mxGeometry x="810" y="158.82" width="100" height="40" as="geometry" />
        </mxCell>
        <mxCell id="FPKgR_mp3HJGvwH1V2J1-61" value="nik" style="ellipse;whiteSpace=wrap;html=1;align=center;" vertex="1" parent="1">
          <mxGeometry x="760" y="118.82" width="100" height="40" as="geometry" />
        </mxCell>
        <mxCell id="FPKgR_mp3HJGvwH1V2J1-62" value="selfie_path" style="ellipse;whiteSpace=wrap;html=1;align=center;" vertex="1" parent="1">
          <mxGeometry x="1035" y="208.82" width="100" height="40" as="geometry" />
        </mxCell>
        <mxCell id="FPKgR_mp3HJGvwH1V2J1-64" value="ket" style="ellipse;whiteSpace=wrap;html=1;align=center;" vertex="1" parent="1">
          <mxGeometry x="900" y="108.82" width="100" height="40" as="geometry" />
        </mxCell>
        <mxCell id="FPKgR_mp3HJGvwH1V2J1-65" value="check_out_at" style="ellipse;whiteSpace=wrap;html=1;align=center;" vertex="1" parent="1">
          <mxGeometry x="1020" y="308.82" width="100" height="40" as="geometry" />
        </mxCell>
        <mxCell id="FPKgR_mp3HJGvwH1V2J1-66" value="check_in_at" style="ellipse;whiteSpace=wrap;html=1;align=center;" vertex="1" parent="1">
          <mxGeometry x="1040" y="258.82" width="100" height="40" as="geometry" />
        </mxCell>
        <mxCell id="FPKgR_mp3HJGvwH1V2J1-67" value="user_id" style="ellipse;whiteSpace=wrap;html=1;align=center;" vertex="1" parent="1">
          <mxGeometry x="1035" y="138.82" width="100" height="40" as="geometry" />
        </mxCell>
        <mxCell id="FPKgR_mp3HJGvwH1V2J1-68" value="" style="endArrow=none;html=1;rounded=0;entryX=0.92;entryY=0.739;entryDx=0;entryDy=0;entryPerimeter=0;" edge="1" parent="1" target="FPKgR_mp3HJGvwH1V2J1-55">
          <mxGeometry width="50" height="50" relative="1" as="geometry">
            <mxPoint x="790" y="328.82" as="sourcePoint" />
            <mxPoint x="1060" y="408.82" as="targetPoint" />
          </mxGeometry>
        </mxCell>
        <mxCell id="FPKgR_mp3HJGvwH1V2J1-69" value="" style="endArrow=none;html=1;rounded=0;entryX=0.5;entryY=1;entryDx=0;entryDy=0;exitX=0.129;exitY=-0.017;exitDx=0;exitDy=0;exitPerimeter=0;" edge="1" parent="1" source="FPKgR_mp3HJGvwH1V2J1-56" target="FPKgR_mp3HJGvwH1V2J1-58">
          <mxGeometry width="50" height="50" relative="1" as="geometry">
            <mxPoint x="800" y="338.82" as="sourcePoint" />
            <mxPoint x="752" y="308.82" as="targetPoint" />
          </mxGeometry>
        </mxCell>
        <mxCell id="FPKgR_mp3HJGvwH1V2J1-70" value="" style="endArrow=none;html=1;rounded=0;entryX=0.38;entryY=1.039;entryDx=0;entryDy=0;entryPerimeter=0;exitX=0.365;exitY=-0.022;exitDx=0;exitDy=0;exitPerimeter=0;" edge="1" parent="1" source="FPKgR_mp3HJGvwH1V2J1-56" target="FPKgR_mp3HJGvwH1V2J1-64">
          <mxGeometry width="50" height="50" relative="1" as="geometry">
            <mxPoint x="810" y="348.82" as="sourcePoint" />
            <mxPoint x="762" y="318.82" as="targetPoint" />
          </mxGeometry>
        </mxCell>
        <mxCell id="FPKgR_mp3HJGvwH1V2J1-71" value="" style="endArrow=none;html=1;rounded=0;entryX=0.726;entryY=1.032;entryDx=0;entryDy=0;entryPerimeter=0;exitX=0;exitY=0;exitDx=0;exitDy=0;" edge="1" parent="1" source="FPKgR_mp3HJGvwH1V2J1-56" target="FPKgR_mp3HJGvwH1V2J1-57">
          <mxGeometry width="50" height="50" relative="1" as="geometry">
            <mxPoint x="820" y="358.82" as="sourcePoint" />
            <mxPoint x="772" y="328.82" as="targetPoint" />
          </mxGeometry>
        </mxCell>
        <mxCell id="FPKgR_mp3HJGvwH1V2J1-72" value="" style="endArrow=none;html=1;rounded=0;entryX=0.425;entryY=1.054;entryDx=0;entryDy=0;exitX=0.198;exitY=0.015;exitDx=0;exitDy=0;exitPerimeter=0;entryPerimeter=0;" edge="1" parent="1" source="FPKgR_mp3HJGvwH1V2J1-56" target="FPKgR_mp3HJGvwH1V2J1-61">
          <mxGeometry width="50" height="50" relative="1" as="geometry">
            <mxPoint x="821" y="326.82" as="sourcePoint" />
            <mxPoint x="790" y="198.82" as="targetPoint" />
          </mxGeometry>
        </mxCell>
        <mxCell id="FPKgR_mp3HJGvwH1V2J1-73" value="" style="endArrow=none;html=1;rounded=0;entryX=0.408;entryY=1.054;entryDx=0;entryDy=0;entryPerimeter=0;exitX=0.308;exitY=0.033;exitDx=0;exitDy=0;exitPerimeter=0;" edge="1" parent="1" target="FPKgR_mp3HJGvwH1V2J1-60" source="FPKgR_mp3HJGvwH1V2J1-56">
          <mxGeometry width="50" height="50" relative="1" as="geometry">
            <mxPoint x="835" y="318.82" as="sourcePoint" />
            <mxPoint x="863" y="162.82" as="targetPoint" />
          </mxGeometry>
        </mxCell>
        <mxCell id="FPKgR_mp3HJGvwH1V2J1-75" value="" style="endArrow=none;html=1;rounded=0;exitX=0.589;exitY=-0.004;exitDx=0;exitDy=0;exitPerimeter=0;" edge="1" parent="1" source="FPKgR_mp3HJGvwH1V2J1-56" target="FPKgR_mp3HJGvwH1V2J1-59">
          <mxGeometry width="50" height="50" relative="1" as="geometry">
            <mxPoint x="874" y="328.82" as="sourcePoint" />
            <mxPoint x="1045" y="178.82" as="targetPoint" />
          </mxGeometry>
        </mxCell>
        <mxCell id="FPKgR_mp3HJGvwH1V2J1-76" value="" style="endArrow=none;html=1;rounded=0;" edge="1" parent="1" source="FPKgR_mp3HJGvwH1V2J1-56" target="FPKgR_mp3HJGvwH1V2J1-62">
          <mxGeometry width="50" height="50" relative="1" as="geometry">
            <mxPoint x="894" y="328.82" as="sourcePoint" />
            <mxPoint x="1006" y="246.82" as="targetPoint" />
          </mxGeometry>
        </mxCell>
        <mxCell id="FPKgR_mp3HJGvwH1V2J1-77" value="" style="endArrow=none;html=1;rounded=0;exitX=0.75;exitY=0;exitDx=0;exitDy=0;entryX=0.392;entryY=1.033;entryDx=0;entryDy=0;entryPerimeter=0;" edge="1" parent="1" source="FPKgR_mp3HJGvwH1V2J1-56" target="FPKgR_mp3HJGvwH1V2J1-67">
          <mxGeometry width="50" height="50" relative="1" as="geometry">
            <mxPoint x="970" y="340.82" as="sourcePoint" />
            <mxPoint x="1120" y="198.82" as="targetPoint" />
          </mxGeometry>
        </mxCell>
        <mxCell id="FPKgR_mp3HJGvwH1V2J1-78" value="" style="endArrow=none;html=1;rounded=0;entryX=0;entryY=0.5;entryDx=0;entryDy=0;exitX=1;exitY=0.111;exitDx=0;exitDy=0;exitPerimeter=0;" edge="1" parent="1" source="FPKgR_mp3HJGvwH1V2J1-56" target="FPKgR_mp3HJGvwH1V2J1-66">
          <mxGeometry width="50" height="50" relative="1" as="geometry">
            <mxPoint x="980" y="350.82" as="sourcePoint" />
            <mxPoint x="1115" y="278.82" as="targetPoint" />
          </mxGeometry>
        </mxCell>
        <mxCell id="FPKgR_mp3HJGvwH1V2J1-79" value="" style="endArrow=none;html=1;rounded=0;exitX=1;exitY=0.25;exitDx=0;exitDy=0;" edge="1" parent="1" source="FPKgR_mp3HJGvwH1V2J1-56" target="FPKgR_mp3HJGvwH1V2J1-65">
          <mxGeometry width="50" height="50" relative="1" as="geometry">
            <mxPoint x="990" y="360.82" as="sourcePoint" />
            <mxPoint x="1125" y="288.82" as="targetPoint" />
          </mxGeometry>
        </mxCell>
        <mxCell id="FPKgR_mp3HJGvwH1V2J1-101" value="id" style="ellipse;whiteSpace=wrap;html=1;align=center;" vertex="1" parent="1">
          <mxGeometry x="30" y="640" width="100" height="40" as="geometry" />
        </mxCell>
        <mxCell id="FPKgR_mp3HJGvwH1V2J1-102" value="news" style="whiteSpace=wrap;html=1;align=center;" vertex="1" parent="1">
          <mxGeometry x="200" y="710" width="160" height="90" as="geometry" />
        </mxCell>
        <mxCell id="FPKgR_mp3HJGvwH1V2J1-103" value="judul" style="ellipse;whiteSpace=wrap;html=1;align=center;" vertex="1" parent="1">
          <mxGeometry y="690" width="100" height="40" as="geometry" />
        </mxCell>
        <mxCell id="FPKgR_mp3HJGvwH1V2J1-104" value="thumb_path" style="ellipse;whiteSpace=wrap;html=1;align=center;" vertex="1" parent="1">
          <mxGeometry y="740" width="100" height="40" as="geometry" />
        </mxCell>
        <mxCell id="FPKgR_mp3HJGvwH1V2J1-105" value="updated_at" style="ellipse;whiteSpace=wrap;html=1;align=center;" vertex="1" parent="1">
          <mxGeometry x="100" y="940" width="100" height="40" as="geometry" />
        </mxCell>
        <mxCell id="FPKgR_mp3HJGvwH1V2J1-106" value="excerpt" style="ellipse;whiteSpace=wrap;html=1;align=center;" vertex="1" parent="1">
          <mxGeometry x="20" y="840" width="100" height="40" as="geometry" />
        </mxCell>
        <mxCell id="FPKgR_mp3HJGvwH1V2J1-107" value="body" style="ellipse;whiteSpace=wrap;html=1;align=center;" vertex="1" parent="1">
          <mxGeometry y="790" width="100" height="40" as="geometry" />
        </mxCell>
        <mxCell id="FPKgR_mp3HJGvwH1V2J1-109" value="created_at" style="ellipse;whiteSpace=wrap;html=1;align=center;" vertex="1" parent="1">
          <mxGeometry x="50" y="890" width="100" height="40" as="geometry" />
        </mxCell>
        <mxCell id="FPKgR_mp3HJGvwH1V2J1-112" value="user_id" style="ellipse;whiteSpace=wrap;html=1;align=center;" vertex="1" parent="1">
          <mxGeometry x="180" y="900" width="100" height="40" as="geometry" />
        </mxCell>
        <mxCell id="FPKgR_mp3HJGvwH1V2J1-113" value="" style="endArrow=none;html=1;rounded=0;entryX=0.92;entryY=0.739;entryDx=0;entryDy=0;entryPerimeter=0;" edge="1" parent="1" target="FPKgR_mp3HJGvwH1V2J1-101">
          <mxGeometry width="50" height="50" relative="1" as="geometry">
            <mxPoint x="190" y="710" as="sourcePoint" />
            <mxPoint x="460" y="800" as="targetPoint" />
          </mxGeometry>
        </mxCell>
        <mxCell id="FPKgR_mp3HJGvwH1V2J1-114" value="" style="endArrow=none;html=1;rounded=0;entryX=1;entryY=0.5;entryDx=0;entryDy=0;exitX=0;exitY=0;exitDx=0;exitDy=0;" edge="1" parent="1" source="FPKgR_mp3HJGvwH1V2J1-102" target="FPKgR_mp3HJGvwH1V2J1-104">
          <mxGeometry width="50" height="50" relative="1" as="geometry">
            <mxPoint x="200" y="730" as="sourcePoint" />
            <mxPoint x="152" y="700" as="targetPoint" />
          </mxGeometry>
        </mxCell>
        <mxCell id="FPKgR_mp3HJGvwH1V2J1-115" value="" style="endArrow=none;html=1;rounded=0;entryX=1;entryY=0.5;entryDx=0;entryDy=0;exitX=0;exitY=0;exitDx=0;exitDy=0;" edge="1" parent="1" source="FPKgR_mp3HJGvwH1V2J1-102" target="FPKgR_mp3HJGvwH1V2J1-109">
          <mxGeometry width="50" height="50" relative="1" as="geometry">
            <mxPoint x="300" y="700" as="sourcePoint" />
            <mxPoint x="162" y="710" as="targetPoint" />
          </mxGeometry>
        </mxCell>
        <mxCell id="FPKgR_mp3HJGvwH1V2J1-116" value="" style="endArrow=none;html=1;rounded=0;entryX=1;entryY=0.5;entryDx=0;entryDy=0;exitX=0;exitY=0;exitDx=0;exitDy=0;" edge="1" parent="1" source="FPKgR_mp3HJGvwH1V2J1-102" target="FPKgR_mp3HJGvwH1V2J1-103">
          <mxGeometry width="50" height="50" relative="1" as="geometry">
            <mxPoint x="220" y="750" as="sourcePoint" />
            <mxPoint x="172" y="720" as="targetPoint" />
          </mxGeometry>
        </mxCell>
        <mxCell id="FPKgR_mp3HJGvwH1V2J1-117" value="" style="endArrow=none;html=1;rounded=0;entryX=1;entryY=0.5;entryDx=0;entryDy=0;exitX=0;exitY=0;exitDx=0;exitDy=0;" edge="1" parent="1" source="FPKgR_mp3HJGvwH1V2J1-102" target="FPKgR_mp3HJGvwH1V2J1-107">
          <mxGeometry width="50" height="50" relative="1" as="geometry">
            <mxPoint x="221" y="718" as="sourcePoint" />
            <mxPoint x="190" y="590" as="targetPoint" />
          </mxGeometry>
        </mxCell>
        <mxCell id="FPKgR_mp3HJGvwH1V2J1-118" value="" style="endArrow=none;html=1;rounded=0;exitX=0;exitY=0;exitDx=0;exitDy=0;entryX=1;entryY=0.5;entryDx=0;entryDy=0;" edge="1" parent="1" target="FPKgR_mp3HJGvwH1V2J1-106" source="FPKgR_mp3HJGvwH1V2J1-102">
          <mxGeometry width="50" height="50" relative="1" as="geometry">
            <mxPoint x="235" y="710" as="sourcePoint" />
            <mxPoint x="260" y="650" as="targetPoint" />
          </mxGeometry>
        </mxCell>
        <mxCell id="FPKgR_mp3HJGvwH1V2J1-119" value="" style="endArrow=none;html=1;rounded=0;exitX=0;exitY=0;exitDx=0;exitDy=0;" edge="1" parent="1" source="FPKgR_mp3HJGvwH1V2J1-102" target="FPKgR_mp3HJGvwH1V2J1-105">
          <mxGeometry width="50" height="50" relative="1" as="geometry">
            <mxPoint x="320" y="710" as="sourcePoint" />
            <mxPoint x="445" y="570" as="targetPoint" />
          </mxGeometry>
        </mxCell>
        <mxCell id="FPKgR_mp3HJGvwH1V2J1-121" value="" style="endArrow=none;html=1;rounded=0;exitX=-0.003;exitY=0.087;exitDx=0;exitDy=0;entryX=0;entryY=0.5;entryDx=0;entryDy=0;exitPerimeter=0;" edge="1" parent="1" source="FPKgR_mp3HJGvwH1V2J1-102" target="FPKgR_mp3HJGvwH1V2J1-112">
          <mxGeometry width="50" height="50" relative="1" as="geometry">
            <mxPoint x="370" y="732" as="sourcePoint" />
            <mxPoint x="520" y="590" as="targetPoint" />
          </mxGeometry>
        </mxCell>
        <mxCell id="FPKgR_mp3HJGvwH1V2J1-124" value="id" style="ellipse;whiteSpace=wrap;html=1;align=center;" vertex="1" parent="1">
          <mxGeometry x="1075" y="468.82" width="100" height="40" as="geometry" />
        </mxCell>
        <mxCell id="FPKgR_mp3HJGvwH1V2J1-125" value="tickets" style="whiteSpace=wrap;html=1;align=center;" vertex="1" parent="1">
          <mxGeometry x="795" y="558.8199999999999" width="160" height="90" as="geometry" />
        </mxCell>
        <mxCell id="FPKgR_mp3HJGvwH1V2J1-126" value="number" style="ellipse;whiteSpace=wrap;html=1;align=center;" vertex="1" parent="1">
          <mxGeometry x="1115" y="518.82" width="100" height="40" as="geometry" />
        </mxCell>
        <mxCell id="FPKgR_mp3HJGvwH1V2J1-127" value="is_used" style="ellipse;whiteSpace=wrap;html=1;align=center;" vertex="1" parent="1">
          <mxGeometry x="1125" y="568.8199999999999" width="100" height="40" as="geometry" />
        </mxCell>
        <mxCell id="FPKgR_mp3HJGvwH1V2J1-129" value="updated_at" style="ellipse;whiteSpace=wrap;html=1;align=center;" vertex="1" parent="1">
          <mxGeometry x="1115" y="618.8199999999999" width="100" height="40" as="geometry" />
        </mxCell>
        <mxCell id="FPKgR_mp3HJGvwH1V2J1-130" value="created_at" style="ellipse;whiteSpace=wrap;html=1;align=center;" vertex="1" parent="1">
          <mxGeometry x="1115" y="668.8199999999999" width="100" height="40" as="geometry" />
        </mxCell>
        <mxCell id="FPKgR_mp3HJGvwH1V2J1-133" value="" style="endArrow=none;html=1;rounded=0;entryX=0.5;entryY=1;entryDx=0;entryDy=0;exitX=0.998;exitY=0.023;exitDx=0;exitDy=0;exitPerimeter=0;" edge="1" parent="1" target="FPKgR_mp3HJGvwH1V2J1-124" source="FPKgR_mp3HJGvwH1V2J1-125">
          <mxGeometry width="50" height="50" relative="1" as="geometry">
            <mxPoint x="795" y="578.8199999999999" as="sourcePoint" />
            <mxPoint x="1065" y="658.8199999999999" as="targetPoint" />
          </mxGeometry>
        </mxCell>
        <mxCell id="FPKgR_mp3HJGvwH1V2J1-134" value="" style="endArrow=none;html=1;rounded=0;entryX=0;entryY=1;entryDx=0;entryDy=0;exitX=1;exitY=0;exitDx=0;exitDy=0;" edge="1" parent="1" source="FPKgR_mp3HJGvwH1V2J1-125" target="FPKgR_mp3HJGvwH1V2J1-127">
          <mxGeometry width="50" height="50" relative="1" as="geometry">
            <mxPoint x="805" y="588.8199999999999" as="sourcePoint" />
            <mxPoint x="757" y="558.8199999999999" as="targetPoint" />
          </mxGeometry>
        </mxCell>
        <mxCell id="FPKgR_mp3HJGvwH1V2J1-136" value="" style="endArrow=none;html=1;rounded=0;entryX=0.348;entryY=0.987;entryDx=0;entryDy=0;entryPerimeter=0;exitX=0.998;exitY=0.017;exitDx=0;exitDy=0;exitPerimeter=0;" edge="1" parent="1" source="FPKgR_mp3HJGvwH1V2J1-125" target="FPKgR_mp3HJGvwH1V2J1-126">
          <mxGeometry width="50" height="50" relative="1" as="geometry">
            <mxPoint x="825" y="608.8199999999999" as="sourcePoint" />
            <mxPoint x="777" y="578.8199999999999" as="targetPoint" />
          </mxGeometry>
        </mxCell>
        <mxCell id="FPKgR_mp3HJGvwH1V2J1-137" value="" style="endArrow=none;html=1;rounded=0;exitX=1;exitY=0;exitDx=0;exitDy=0;entryX=0.009;entryY=0.371;entryDx=0;entryDy=0;entryPerimeter=0;" edge="1" parent="1" source="FPKgR_mp3HJGvwH1V2J1-125" target="FPKgR_mp3HJGvwH1V2J1-130">
          <mxGeometry width="50" height="50" relative="1" as="geometry">
            <mxPoint x="826" y="576.8199999999999" as="sourcePoint" />
            <mxPoint x="1125" y="688.8199999999999" as="targetPoint" />
          </mxGeometry>
        </mxCell>
        <mxCell id="FPKgR_mp3HJGvwH1V2J1-138" value="" style="endArrow=none;html=1;rounded=0;exitX=1;exitY=0;exitDx=0;exitDy=0;entryX=0;entryY=0.5;entryDx=0;entryDy=0;" edge="1" parent="1" source="FPKgR_mp3HJGvwH1V2J1-125" target="FPKgR_mp3HJGvwH1V2J1-129">
          <mxGeometry width="50" height="50" relative="1" as="geometry">
            <mxPoint x="840" y="568.8199999999999" as="sourcePoint" />
            <mxPoint x="865" y="508.81999999999994" as="targetPoint" />
          </mxGeometry>
        </mxCell>
        <mxCell id="FPKgR_mp3HJGvwH1V2J1-142" style="edgeStyle=orthogonalEdgeStyle;rounded=0;orthogonalLoop=1;jettySize=auto;html=1;exitX=0.5;exitY=1;exitDx=0;exitDy=0;" edge="1" parent="1" source="FPKgR_mp3HJGvwH1V2J1-130" target="FPKgR_mp3HJGvwH1V2J1-130">
          <mxGeometry relative="1" as="geometry" />
        </mxCell>
        <mxCell id="FPKgR_mp3HJGvwH1V2J1-155" value="id" style="ellipse;whiteSpace=wrap;html=1;align=center;" vertex="1" parent="1">
          <mxGeometry x="650" y="630" width="100" height="40" as="geometry" />
        </mxCell>
        <mxCell id="FPKgR_mp3HJGvwH1V2J1-156" value="infos" style="whiteSpace=wrap;html=1;align=center;" vertex="1" parent="1">
          <mxGeometry x="415" y="710" width="160" height="90" as="geometry" />
        </mxCell>
        <mxCell id="FPKgR_mp3HJGvwH1V2J1-157" value="nama" style="ellipse;whiteSpace=wrap;html=1;align=center;" vertex="1" parent="1">
          <mxGeometry x="660" y="680" width="100" height="40" as="geometry" />
        </mxCell>
        <mxCell id="FPKgR_mp3HJGvwH1V2J1-158" value="lokasi" style="ellipse;whiteSpace=wrap;html=1;align=center;" vertex="1" parent="1">
          <mxGeometry x="665" y="730" width="100" height="40" as="geometry" />
        </mxCell>
        <mxCell id="FPKgR_mp3HJGvwH1V2J1-159" value="updated_at" style="ellipse;whiteSpace=wrap;html=1;align=center;" vertex="1" parent="1">
          <mxGeometry x="590" y="950" width="100" height="40" as="geometry" />
        </mxCell>
        <mxCell id="FPKgR_mp3HJGvwH1V2J1-160" value="ket" style="ellipse;whiteSpace=wrap;html=1;align=center;" vertex="1" parent="1">
          <mxGeometry x="650" y="830" width="100" height="40" as="geometry" />
        </mxCell>
        <mxCell id="FPKgR_mp3HJGvwH1V2J1-161" value="tanggal" style="ellipse;whiteSpace=wrap;html=1;align=center;" vertex="1" parent="1">
          <mxGeometry x="660" y="780" width="100" height="40" as="geometry" />
        </mxCell>
        <mxCell id="FPKgR_mp3HJGvwH1V2J1-162" value="created_at" style="ellipse;whiteSpace=wrap;html=1;align=center;" vertex="1" parent="1">
          <mxGeometry x="635" y="900" width="100" height="40" as="geometry" />
        </mxCell>
        <mxCell id="FPKgR_mp3HJGvwH1V2J1-164" value="" style="endArrow=none;html=1;rounded=0;entryX=0;entryY=0.5;entryDx=0;entryDy=0;exitX=1;exitY=0;exitDx=0;exitDy=0;" edge="1" parent="1" target="FPKgR_mp3HJGvwH1V2J1-155" source="FPKgR_mp3HJGvwH1V2J1-156">
          <mxGeometry width="50" height="50" relative="1" as="geometry">
            <mxPoint x="600" y="860" as="sourcePoint" />
            <mxPoint x="870" y="940" as="targetPoint" />
          </mxGeometry>
        </mxCell>
        <mxCell id="FPKgR_mp3HJGvwH1V2J1-165" value="" style="endArrow=none;html=1;rounded=0;entryX=0.06;entryY=0.256;entryDx=0;entryDy=0;exitX=1;exitY=0;exitDx=0;exitDy=0;entryPerimeter=0;" edge="1" parent="1" source="FPKgR_mp3HJGvwH1V2J1-156" target="FPKgR_mp3HJGvwH1V2J1-158">
          <mxGeometry width="50" height="50" relative="1" as="geometry">
            <mxPoint x="610" y="870" as="sourcePoint" />
            <mxPoint x="562" y="840" as="targetPoint" />
          </mxGeometry>
        </mxCell>
        <mxCell id="FPKgR_mp3HJGvwH1V2J1-166" value="" style="endArrow=none;html=1;rounded=0;exitX=1;exitY=0;exitDx=0;exitDy=0;entryX=0;entryY=0;entryDx=0;entryDy=0;" edge="1" parent="1" source="FPKgR_mp3HJGvwH1V2J1-156" target="FPKgR_mp3HJGvwH1V2J1-162">
          <mxGeometry width="50" height="50" relative="1" as="geometry">
            <mxPoint x="710" y="840" as="sourcePoint" />
            <mxPoint x="790" y="1110" as="targetPoint" />
          </mxGeometry>
        </mxCell>
        <mxCell id="FPKgR_mp3HJGvwH1V2J1-167" value="" style="endArrow=none;html=1;rounded=0;entryX=0;entryY=0.5;entryDx=0;entryDy=0;exitX=1;exitY=0;exitDx=0;exitDy=0;" edge="1" parent="1" source="FPKgR_mp3HJGvwH1V2J1-156" target="FPKgR_mp3HJGvwH1V2J1-157">
          <mxGeometry width="50" height="50" relative="1" as="geometry">
            <mxPoint x="630" y="890" as="sourcePoint" />
            <mxPoint x="582" y="860" as="targetPoint" />
          </mxGeometry>
        </mxCell>
        <mxCell id="FPKgR_mp3HJGvwH1V2J1-168" value="" style="endArrow=none;html=1;rounded=0;entryX=0;entryY=0.5;entryDx=0;entryDy=0;exitX=1;exitY=0;exitDx=0;exitDy=0;" edge="1" parent="1" source="FPKgR_mp3HJGvwH1V2J1-156" target="FPKgR_mp3HJGvwH1V2J1-161">
          <mxGeometry width="50" height="50" relative="1" as="geometry">
            <mxPoint x="631" y="858" as="sourcePoint" />
            <mxPoint x="600" y="730" as="targetPoint" />
          </mxGeometry>
        </mxCell>
        <mxCell id="FPKgR_mp3HJGvwH1V2J1-169" value="" style="endArrow=none;html=1;rounded=0;exitX=1;exitY=0;exitDx=0;exitDy=0;entryX=0;entryY=0.5;entryDx=0;entryDy=0;" edge="1" parent="1" source="FPKgR_mp3HJGvwH1V2J1-156" target="FPKgR_mp3HJGvwH1V2J1-160">
          <mxGeometry width="50" height="50" relative="1" as="geometry">
            <mxPoint x="645" y="850" as="sourcePoint" />
            <mxPoint x="670" y="790" as="targetPoint" />
          </mxGeometry>
        </mxCell>
        <mxCell id="FPKgR_mp3HJGvwH1V2J1-170" value="" style="endArrow=none;html=1;rounded=0;exitX=1;exitY=0;exitDx=0;exitDy=0;" edge="1" parent="1" target="FPKgR_mp3HJGvwH1V2J1-159" source="FPKgR_mp3HJGvwH1V2J1-156">
          <mxGeometry width="50" height="50" relative="1" as="geometry">
            <mxPoint x="730" y="850" as="sourcePoint" />
            <mxPoint x="855" y="710" as="targetPoint" />
          </mxGeometry>
        </mxCell>
        <mxCell id="FPKgR_mp3HJGvwH1V2J1-172" value="" style="endArrow=none;html=1;rounded=0;entryX=0;entryY=0.5;entryDx=0;entryDy=0;exitX=1;exitY=1;exitDx=0;exitDy=0;" edge="1" parent="1" source="FPKgR_mp3HJGvwH1V2J1-2" target="FPKgR_mp3HJGvwH1V2J1-4">
          <mxGeometry width="50" height="50" relative="1" as="geometry">
            <mxPoint x="710" y="520" as="sourcePoint" />
            <mxPoint x="760" y="470" as="targetPoint" />
          </mxGeometry>
        </mxCell>
        <mxCell id="FPKgR_mp3HJGvwH1V2J1-173" value="" style="endArrow=none;html=1;rounded=0;entryX=1;entryY=0.5;entryDx=0;entryDy=0;exitX=0;exitY=1;exitDx=0;exitDy=0;" edge="1" parent="1" source="FPKgR_mp3HJGvwH1V2J1-56" target="FPKgR_mp3HJGvwH1V2J1-4">
          <mxGeometry width="50" height="50" relative="1" as="geometry">
            <mxPoint x="370" y="410" as="sourcePoint" />
            <mxPoint x="570" y="410" as="targetPoint" />
          </mxGeometry>
        </mxCell>
        <mxCell id="FPKgR_mp3HJGvwH1V2J1-174" value="1" style="text;html=1;align=center;verticalAlign=middle;resizable=0;points=[];autosize=1;strokeColor=none;fillColor=none;" vertex="1" parent="1">
          <mxGeometry x="355" y="378" width="30" height="30" as="geometry" />
        </mxCell>
        <mxCell id="FPKgR_mp3HJGvwH1V2J1-175" value="M" style="text;html=1;align=center;verticalAlign=middle;resizable=0;points=[];autosize=1;strokeColor=none;fillColor=none;" vertex="1" parent="1">
          <mxGeometry x="770" y="376.82" width="30" height="30" as="geometry" />
        </mxCell>
        <mxCell id="FPKgR_mp3HJGvwH1V2J1-176" value="" style="endArrow=none;html=1;rounded=0;entryX=0.5;entryY=0;entryDx=0;entryDy=0;exitX=0.5;exitY=1;exitDx=0;exitDy=0;" edge="1" parent="1" source="FPKgR_mp3HJGvwH1V2J1-56" target="FPKgR_mp3HJGvwH1V2J1-177">
          <mxGeometry width="50" height="50" relative="1" as="geometry">
            <mxPoint x="805" y="408.82" as="sourcePoint" />
            <mxPoint x="615" y="408.82" as="targetPoint" />
          </mxGeometry>
        </mxCell>
        <mxCell id="FPKgR_mp3HJGvwH1V2J1-177" value="Memiliki" style="shape=rhombus;perimeter=rhombusPerimeter;whiteSpace=wrap;html=1;align=center;" vertex="1" parent="1">
          <mxGeometry x="835" y="448.82" width="80" height="60" as="geometry" />
        </mxCell>
        <mxCell id="FPKgR_mp3HJGvwH1V2J1-180" value="" style="endArrow=none;html=1;rounded=0;entryX=0.5;entryY=1;entryDx=0;entryDy=0;exitX=0.5;exitY=0;exitDx=0;exitDy=0;" edge="1" parent="1" source="FPKgR_mp3HJGvwH1V2J1-125" target="FPKgR_mp3HJGvwH1V2J1-177">
          <mxGeometry width="50" height="50" relative="1" as="geometry">
            <mxPoint x="885" y="408.82" as="sourcePoint" />
            <mxPoint x="885" y="458.82" as="targetPoint" />
          </mxGeometry>
        </mxCell>
        <mxCell id="FPKgR_mp3HJGvwH1V2J1-181" value="1" style="text;html=1;align=center;verticalAlign=middle;resizable=0;points=[];autosize=1;strokeColor=none;fillColor=none;" vertex="1" parent="1">
          <mxGeometry x="870" y="398.82" width="30" height="30" as="geometry" />
        </mxCell>
        <mxCell id="FPKgR_mp3HJGvwH1V2J1-182" value="1" style="text;html=1;align=center;verticalAlign=middle;resizable=0;points=[];autosize=1;strokeColor=none;fillColor=none;" vertex="1" parent="1">
          <mxGeometry x="870" y="528.8199999999999" width="30" height="30" as="geometry" />
        </mxCell>
        <mxCell id="FPKgR_mp3HJGvwH1V2J1-185" value="Membuat" style="shape=rhombus;perimeter=rhombusPerimeter;whiteSpace=wrap;html=1;align=center;" vertex="1" parent="1">
          <mxGeometry x="225" y="520" width="110" height="60" as="geometry" />
        </mxCell>
        <mxCell id="FPKgR_mp3HJGvwH1V2J1-186" value="" style="endArrow=none;html=1;rounded=0;entryX=0.5;entryY=0;entryDx=0;entryDy=0;exitX=0.5;exitY=1;exitDx=0;exitDy=0;" edge="1" parent="1" source="FPKgR_mp3HJGvwH1V2J1-2" target="FPKgR_mp3HJGvwH1V2J1-185">
          <mxGeometry width="50" height="50" relative="1" as="geometry">
            <mxPoint x="370" y="410" as="sourcePoint" />
            <mxPoint x="570" y="410" as="targetPoint" />
          </mxGeometry>
        </mxCell>
        <mxCell id="FPKgR_mp3HJGvwH1V2J1-187" value="" style="endArrow=none;html=1;rounded=0;exitX=0.5;exitY=1;exitDx=0;exitDy=0;" edge="1" parent="1" source="FPKgR_mp3HJGvwH1V2J1-185">
          <mxGeometry width="50" height="50" relative="1" as="geometry">
            <mxPoint x="219.05" y="545" as="sourcePoint" />
            <mxPoint x="280" y="709" as="targetPoint" />
          </mxGeometry>
        </mxCell>
        <mxCell id="FPKgR_mp3HJGvwH1V2J1-188" value="Membuat" style="shape=rhombus;perimeter=rhombusPerimeter;whiteSpace=wrap;html=1;align=center;" vertex="1" parent="1">
          <mxGeometry x="440" y="520" width="110" height="60" as="geometry" />
        </mxCell>
        <mxCell id="FPKgR_mp3HJGvwH1V2J1-189" value="1" style="text;html=1;align=center;verticalAlign=middle;resizable=0;points=[];autosize=1;strokeColor=none;fillColor=none;" vertex="1" parent="1">
          <mxGeometry x="270" y="400" width="30" height="30" as="geometry" />
        </mxCell>
        <mxCell id="FPKgR_mp3HJGvwH1V2J1-190" value="M" style="text;html=1;align=center;verticalAlign=middle;resizable=0;points=[];autosize=1;strokeColor=none;fillColor=none;" vertex="1" parent="1">
          <mxGeometry x="280" y="685" width="30" height="30" as="geometry" />
        </mxCell>
        <mxCell id="FPKgR_mp3HJGvwH1V2J1-192" value="" style="endArrow=none;html=1;rounded=0;exitX=0.871;exitY=0.989;exitDx=0;exitDy=0;exitPerimeter=0;entryX=0.5;entryY=0;entryDx=0;entryDy=0;" edge="1" parent="1" source="FPKgR_mp3HJGvwH1V2J1-2" target="FPKgR_mp3HJGvwH1V2J1-188">
          <mxGeometry width="50" height="50" relative="1" as="geometry">
            <mxPoint x="290" y="410" as="sourcePoint" />
            <mxPoint x="340" y="480" as="targetPoint" />
            <Array as="points">
              <mxPoint x="340" y="520" />
            </Array>
          </mxGeometry>
        </mxCell>
        <mxCell id="FPKgR_mp3HJGvwH1V2J1-193" value="" style="endArrow=none;html=1;rounded=0;" edge="1" parent="1" source="FPKgR_mp3HJGvwH1V2J1-188" target="FPKgR_mp3HJGvwH1V2J1-156">
          <mxGeometry width="50" height="50" relative="1" as="geometry">
            <mxPoint x="494.66999999999996" y="581" as="sourcePoint" />
            <mxPoint x="494.66999999999996" y="710" as="targetPoint" />
          </mxGeometry>
        </mxCell>
        <mxCell id="FPKgR_mp3HJGvwH1V2J1-194" value="1" style="text;html=1;align=center;verticalAlign=middle;resizable=0;points=[];autosize=1;strokeColor=none;fillColor=none;" vertex="1" parent="1">
          <mxGeometry x="335" y="400" width="30" height="30" as="geometry" />
        </mxCell>
        <mxCell id="FPKgR_mp3HJGvwH1V2J1-195" value="M" style="text;html=1;align=center;verticalAlign=middle;resizable=0;points=[];autosize=1;strokeColor=none;fillColor=none;" vertex="1" parent="1">
          <mxGeometry x="490" y="680" width="30" height="30" as="geometry" />
        </mxCell>
      </root>
    </mxGraphModel>
  </diagram>
</mxfile>
